PathFileType	4	(X/Y/Z)	/home/nbianco/projects/addbio/data/HamnerRunning2013/Processed/subject02//results/MarkerData/run300.trc
DataRate	CameraRate	NumFrames	NumMarkers	Units	OrigDataRate	OrigDataStartFrame	OrigNumFrames
119.99	119.99	10	42	m	119.99	0	269
Frame#	Time	C7			CLAV			LACR			LASI			LCAL			LFAradius			LFAsuperior			LFAulna			LLEL			LMEL			LMT5			LPSI			LTB1			LTB2			LTB3			LTH1			LTH2			LTH3			LTOE			LUA1			LUA2			LUA3			RACR			RASI			RCAL			RFAradius			RFAsuperior			RFAulna			RLEL			RMEL			RMT5			RPSI			RTB1			RTB2			RTB3			RTH1			RTH2			RTH3			RTOE			RUA1			RUA2			RUA3		
		X1	Y1	Z1	X2	Y2	Z2	X3	Y3	Z3	X4	Y4	Z4	X5	Y5	Z5	X6	Y6	Z6	X7	Y7	Z7	X8	Y8	Z8	X9	Y9	Z9	X10	Y10	Z10	X11	Y11	Z11	X12	Y12	Z12	X13	Y13	Z13	X14	Y14	Z14	X15	Y15	Z15	X16	Y16	Z16	X17	Y17	Z17	X18	Y18	Z18	X19	Y19	Z19	X20	Y20	Z20	X21	Y21	Z21	X22	Y22	Z22	X23	Y23	Z23	X24	Y24	Z24	X25	Y25	Z25	X26	Y26	Z26	X27	Y27	Z27	X28	Y28	Z28	X29	Y29	Z29	X30	Y30	Z30	X31	Y31	Z31	X32	Y32	Z32	X33	Y33	Z33	X34	Y34	Z34	X35	Y35	Z35	X36	Y36	Z36	X37	Y37	Z37	X38	Y38	Z38	X39	Y39	Z39	X40	Y40	Z40	X41	Y41	Z41	X42	Y42	Z42

1	1.13333	0.839537	1.59959	-0.325255	0.950644	1.51773	-0.262583	0.953856	1.57177	-0.471467	0.918161	1.09027	-0.453525	0.269364	0.365957	-0.322721	1.03464	1.29949	-0.417019	0.945785	1.25008	-0.566642	1.05976	1.23166	-0.433988	0.861825	1.23776	-0.61892	0.795695	1.23136	-0.557142	0.271668	0.201238	-0.406435	0.739968	1.13961	-0.365965	0.5904	0.454481	-0.380129	0.496499	0.429473	-0.423424	0.420615	0.344869	-0.355642	0.786797	0.886761	-0.49468	0.792549	0.752809	-0.473488	0.687681	0.673636	-0.446899	0.333117	0.141387	-0.331308	0.949109	1.48313	-0.548155	0.95297	1.411	-0.540561	0.858262	1.40277	-0.567023	0.871627	1.57423	-0.144835	0.911543	1.09629	-0.196857	1.05015	0.104738	-0.295842	0.791845	1.16884	-0.0787277	0.658536	1.28666	-0.0303743	0.74645	1.14025	-0.0295827	0.584162	1.36066	-0.054935	0.586319	1.35277	-0.136768	1.22477	0.0994177	-0.223907	0.734972	1.12902	-0.281695	1.10556	0.452961	-0.273609	1.0955	0.382437	-0.20438	1.12573	0.287952	-0.277658	0.879485	0.922512	-0.139745	0.969462	0.834241	-0.14471	0.946941	0.712388	-0.191715	1.27992	0.154092	-0.307055	0.794761	1.51159	-0.0768577	0.754221	1.42827	-0.0807557	0.682836	1.46366	-0.0907495
2	1.14167	0.839809	1.59545	-0.324352	0.950956	1.51292	-0.262461	0.953982	1.56751	-0.471119	0.918538	1.08709	-0.452841	0.269958	0.379939	-0.324134	1.03216	1.2917	-0.416899	0.941895	1.24541	-0.566885	1.05558	1.22345	-0.43441	0.857806	1.23515	-0.619263	0.791814	1.22951	-0.557539	0.266668	0.21608	-0.409134	0.739835	1.1346	-0.366554	0.597435	0.450134	-0.379657	0.502778	0.429872	-0.423695	0.421308	0.350794	-0.355923	0.793204	0.879959	-0.493589	0.801695	0.746228	-0.471133	0.698178	0.664662	-0.447231	0.324816	0.153079	-0.333826	0.948733	1.47893	-0.547749	0.951523	1.40678	-0.540378	0.856536	1.40015	-0.566821	0.873049	1.56903	-0.144001	0.910714	1.09353	-0.196295	1.0382	0.100814	-0.297963	0.799863	1.16316	-0.0750813	0.665573	1.27884	-0.0252377	0.755981	1.13419	-0.0247867	0.589485	1.3515	-0.048963	0.590315	1.3432	-0.130828	1.21229	0.0902878	-0.226472	0.73446	1.12458	-0.282409	1.10008	0.447037	-0.275345	1.09004	0.376937	-0.206159	1.11735	0.281874	-0.279484	0.878359	0.919208	-0.1397	0.969854	0.832038	-0.146589	0.945847	0.708795	-0.192212	1.26916	0.143579	-0.308928	0.79756	1.50478	-0.074737	0.758117	1.42086	-0.0784588	0.68615	1.45534	-0.0862427
3	1.15	0.840003	1.59061	-0.323435	0.951255	1.50728	-0.26236	0.953894	1.56239	-0.470856	0.918814	1.08306	-0.452245	0.273346	0.393723	-0.326196	1.02959	1.28277	-0.417084	0.937769	1.23982	-0.567284	1.05122	1.21427	-0.43534	0.853548	1.23172	-0.619685	0.787617	1.22683	-0.55798	0.263768	0.23057	-0.411837	0.739653	1.12848	-0.367196	0.605688	0.445436	-0.379626	0.51061	0.429913	-0.424318	0.423984	0.356414	-0.356655	0.799883	0.872583	-0.492724	0.811115	0.739241	-0.469458	0.709223	0.655295	-0.447724	0.318195	0.16474	-0.33597	0.947958	1.47388	-0.547503	0.949744	1.40176	-0.540317	0.854605	1.39661	-0.566741	0.874618	1.563	-0.143308	0.909937	1.09024	-0.195702	1.02387	0.0979828	-0.299901	0.808588	1.1568	-0.0712719	0.673249	1.27012	-0.0197622	0.766216	1.12732	-0.0199986	0.595426	1.34135	-0.0425105	0.594774	1.33264	-0.124397	1.1971	0.0797281	-0.229222	0.734022	1.11923	-0.283167	1.09357	0.43974	-0.27691	1.08295	0.369954	-0.207916	1.10734	0.274303	-0.281108	0.877972	0.915638	-0.140406	0.970802	0.829712	-0.150166	0.944461	0.704308	-0.192419	1.2555	0.130442	-0.312165	0.800697	1.49715	-0.0725456	0.762401	1.41267	-0.0759437	0.689925	1.44605	-0.0812673
4	1.15833	0.84005	1.58508	-0.32251	0.951579	1.50079	-0.262264	0.953587	1.55644	-0.470681	0.919028	1.07814	-0.4518	0.279323	0.407061	-0.328795	1.0269	1.27271	-0.417588	0.933411	1.23331	-0.567872	1.04665	1.20406	-0.436675	0.849056	1.22747	-0.620178	0.783116	1.2233	-0.558436	0.263037	0.244526	-0.414546	0.739384	1.12132	-0.367847	0.615033	0.440331	-0.380055	0.519814	0.429564	-0.425268	0.428549	0.36161	-0.357836	0.806657	0.864641	-0.492119	0.820688	0.731787	-0.468511	0.720733	0.645551	-0.448456	0.313459	0.176269	-0.337785	0.946738	1.46807	-0.547492	0.947649	1.39598	-0.54043	0.852446	1.39219	-0.56676	0.876317	1.55617	-0.142717	0.909241	1.08639	-0.195045	1.00738	0.0964847	-0.301822	0.81799	1.14982	-0.0673362	0.681539	1.26055	-0.01398	0.777124	1.1197	-0.0152413	0.601973	1.33024	-0.0356243	0.599672	1.32114	-0.117518	1.17935	0.0689059	-0.231759	0.733622	1.113	-0.283945	1.08641	0.431489	-0.278426	1.07451	0.361745	-0.209997	1.09596	0.265548	-0.282975	0.878283	0.911606	-0.141398	0.971672	0.826721	-0.15446	0.942664	0.698946	-0.192422	1.23927	0.115285	-0.31659	0.804132	1.48879	-0.0703346	0.767052	1.40376	-0.0731977	0.694133	1.43589	-0.0759008
5	1.16667	0.839827	1.57894	-0.321569	0.951998	1.49348	-0.262167	0.953079	1.5497	-0.470611	0.919203	1.07231	-0.451547	0.287589	0.419638	-0.33175	1.0241	1.26155	-0.418403	0.928822	1.22594	-0.568674	1.04182	1.19272	-0.438236	0.844339	1.22243	-0.62071	0.778407	1.21894	-0.558875	0.264545	0.257717	-0.417195	0.738902	1.11324	-0.368432	0.62535	0.434761	-0.380813	0.530169	0.428779	-0.426508	0.434856	0.366212	-0.359435	0.813211	0.856095	-0.491725	0.830233	0.723775	-0.468226	0.7326	0.63538	-0.449429	0.310942	0.187516	-0.339405	0.945055	1.46159	-0.547793	0.945271	1.38949	-0.540777	0.850021	1.38691	-0.566838	0.878142	1.54858	-0.14209	0.908504	1.08195	-0.194219	0.988801	0.0963117	-0.303876	0.828015	1.14224	-0.0633464	0.690424	1.2502	-0.0079469	0.788665	1.1114	-0.0105487	0.609116	1.31823	-0.0283649	0.604933	1.30876	-0.110219	1.15929	0.0597839	-0.233708	0.733041	1.10602	-0.284672	1.07928	0.423346	-0.280161	1.06547	0.353249	-0.212846	1.08357	0.256617	-0.285703	0.878943	0.907016	-0.14196	0.971549	0.82262	-0.157788	0.940455	0.693118	-0.192447	1.22082	0.100084	-0.3218	0.807795	1.47978	-0.0681457	0.77206	1.39423	-0.0701704	0.698728	1.42497	-0.0702731
6	1.175	0.839248	1.57234	-0.320582	0.952575	1.48547	-0.26211	0.952403	1.54227	-0.470708	0.919267	1.06554	-0.451416	0.297922	0.431219	-0.334893	1.02116	1.2493	-0.419496	0.924009	1.21774	-0.569654	1.03674	1.18021	-0.439906	0.839411	1.21664	-0.621234	0.773622	1.21382	-0.559279	0.268327	0.269948	-0.41965	0.737983	1.10443	-0.368876	0.636672	0.428864	-0.381573	0.541589	0.427525	-0.427966	0.442815	0.370116	-0.361371	0.819259	0.846917	-0.491368	0.839581	0.715213	-0.468384	0.744725	0.624738	-0.45047	0.310974	0.198302	-0.341008	0.94295	1.45449	-0.548405	0.94263	1.3823	-0.541368	0.847308	1.3808	-0.566948	0.880083	1.54039	-0.141244	0.90738	1.07691	-0.193106	0.968194	0.097064	-0.306009	0.838605	1.13411	-0.0593908	0.699893	1.23913	-0.00173119	0.800798	1.10249	-0.00595687	0.616847	1.30539	-0.0207946	0.610468	1.29558	-0.102512	1.13735	0.0539388	-0.235072	0.731889	1.09851	-0.285273	1.07272	0.416672	-0.282358	1.05673	0.346001	-0.216479	1.07046	0.249104	-0.289418	0.879242	0.902121	-0.141632	0.969908	0.817656	-0.158833	0.938088	0.687644	-0.192645	1.20037	0.0876061	-0.327153	0.811606	1.47019	-0.0659464	0.777415	1.38412	-0.0668263	0.703657	1.41336	-0.0645179
7	1.18333	0.838372	1.56555	-0.319494	0.953298	1.47711	-0.262182	0.951546	1.53432	-0.4711	0.919016	1.05793	-0.451222	0.310221	0.441642	-0.338117	1.0181	1.23596	-0.42083	0.919022	1.20879	-0.570737	1.03142	1.16655	-0.44171	0.834292	1.2102	-0.62171	0.76883	1.20804	-0.559633	0.274448	0.281053	-0.421828	0.736381	1.09515	-0.369166	0.649181	0.423119	-0.381998	0.554152	0.425821	-0.429511	0.452448	0.37334	-0.363515	0.82469	0.837269	-0.490846	0.848605	0.706364	-0.468739	0.757019	0.613742	-0.451264	0.313811	0.208411	-0.342744	0.940502	1.44672	-0.549238	0.939704	1.37438	-0.542123	0.844316	1.37391	-0.567096	0.88205	1.53186	-0.140071	0.905473	1.07135	-0.191702	0.945833	0.0982401	-0.30796	0.849711	1.12543	-0.0555411	0.709925	1.22736	0.00459485	0.813491	1.09303	-0.00150476	0.625162	1.29176	-0.0129982	0.616282	1.28168	-0.0944401	1.11407	0.0515919	-0.236096	0.729803	1.09073	-0.285775	1.06669	0.412376	-0.284966	1.04876	0.341367	-0.220242	1.05689	0.244402	-0.29343	0.878372	0.897406	-0.140498	0.966956	0.812678	-0.157472	0.935928	0.683283	-0.192879	1.17821	0.0796984	-0.331843	0.815526	1.46002	-0.0636288	0.783059	1.37344	-0.0632723	0.708871	1.40108	-0.0587201
8	1.19167	0.837461	1.55892	-0.318261	0.954068	1.46893	-0.262475	0.950395	1.52614	-0.471959	0.91815	1.04974	-0.450818	0.324387	0.450777	-0.341377	1.01494	1.2215	-0.422356	0.913954	1.19913	-0.571896	1.02592	1.15188	-0.44376	0.829002	1.20329	-0.622135	0.764002	1.20176	-0.559915	0.283069	0.290864	-0.423816	0.733962	1.08583	-0.369408	0.663077	0.418259	-0.381999	0.568027	0.423769	-0.430977	0.46387	0.376006	-0.365701	0.829597	0.827648	-0.490102	0.857274	0.697804	-0.469144	0.769405	0.6028	-0.451524	0.319617	0.217592	-0.344665	0.937784	1.43824	-0.550161	0.93643	1.36576	-0.542875	0.84108	1.36629	-0.567339	0.883813	1.5233	-0.138636	0.902604	1.06558	-0.19021	0.922332	0.0995006	-0.309435	0.861312	1.1162	-0.05183	0.720484	1.21493	0.0109638	0.826716	1.08302	0.00276768	0.634084	1.27743	-0.00510128	0.622555	1.26706	-0.0861208	1.09003	0.0515669	-0.236931	0.726679	1.08293	-0.28638	1.06067	0.410286	-0.287522	1.04118	0.339599	-0.223128	1.04295	0.242739	-0.296607	0.875825	0.893241	-0.139087	0.963374	0.808535	-0.154745	0.934093	0.680166	-0.192848	1.15491	0.07612	-0.335156	0.819607	1.44916	-0.0610906	0.788855	1.36218	-0.0598315	0.714332	1.38811	-0.0528731
9	1.2	0.836888	1.55278	-0.3169	0.954737	1.46147	-0.263016	0.94876	1.51809	-0.473397	0.916419	1.04145	-0.450264	0.340175	0.458517	-0.344645	1.01166	1.20591	-0.42401	0.908868	1.18885	-0.573214	1.02022	1.13631	-0.446146	0.823551	1.19611	-0.622526	0.759087	1.19519	-0.560096	0.294408	0.299203	-0.425874	0.730816	1.07708	-0.36982	0.678426	0.414929	-0.38183	0.583345	0.421542	-0.432255	0.477176	0.378259	-0.36777	0.834141	0.818796	-0.489265	0.865673	0.690269	-0.469581	0.781839	0.592574	-0.451156	0.328481	0.225587	-0.346729	0.93483	1.42916	-0.551037	0.932754	1.35667	-0.543433	0.837625	1.35815	-0.567747	0.885048	1.51508	-0.137154	0.898965	1.06011	-0.188966	0.898384	0.100686	-0.310289	0.873418	1.10639	-0.0482732	0.731566	1.20187	0.0173066	0.840479	1.07247	0.00682469	0.643696	1.2625	0.00273825	0.629618	1.25175	-0.0777214	1.06569	0.0521775	-0.237506	0.722764	1.07543	-0.287398	1.05389	0.409175	-0.289318	1.03294	0.339502	-0.224421	1.02849	0.242865	-0.298155	0.871653	0.889622	-0.137992	0.959679	0.805449	-0.152026	0.932199	0.677673	-0.192419	1.13113	0.0750076	-0.336838	0.823979	1.43752	-0.0583657	0.794665	1.35038	-0.0569274	0.720059	1.37451	-0.046894
10	1.20833	0.836908	1.54738	-0.315543	0.95519	1.45501	-0.263754	0.946496	1.51052	-0.475335	0.91379	1.03365	-0.449858	0.357149	0.464791	-0.347883	1.00817	1.1893	-0.42571	0.903694	1.17804	-0.574817	1.01425	1.12002	-0.448874	0.817959	1.18895	-0.622873	0.754109	1.18857	-0.56012	0.308593	0.305888	-0.428263	0.727251	1.06951	-0.370617	0.695116	0.41333	-0.381902	0.600113	0.419342	-0.433361	0.492337	0.380164	-0.369628	0.838401	0.811347	-0.488528	0.874009	0.684335	-0.470092	0.794369	0.583771	-0.450335	0.340412	0.232165	-0.348855	0.931626	1.41987	-0.551772	0.928685	1.34755	-0.543682	0.833942	1.34993	-0.568334	0.885524	1.50751	-0.135865	0.895026	1.0555	-0.188244	0.874413	0.101708	-0.310598	0.886071	1.09599	-0.0449312	0.743298	1.18832	0.023513	0.854842	1.06147	0.0106355	0.654177	1.24717	0.0103589	0.637812	1.23581	-0.0694065	1.04128	0.0522816	-0.237687	0.718547	1.06866	-0.289035	1.04575	0.407456	-0.289792	1.02289	0.339092	-0.224134	1.01309	0.242816	-0.298101	0.866394	0.886259	-0.137508	0.955785	0.802853	-0.15009	0.92946	0.674913	-0.191797	1.10727	0.0743962	-0.337208	0.828742	1.42531	-0.055705	0.800492	1.33827	-0.0548124	0.726156	1.36052	-0.040738
